<mxfile host="app.diagrams.net" agent="Mozilla/5.0 (Macintosh; Intel Mac OS X 10_15_7) AppleWebKit/537.36 (KHTML, like Gecko) Chrome/131.0.0.0 Safari/537.36" version="26.0.11">
  <diagram name="페이지-1" id="3EGuzrfkJuFash29iqZh">
    <mxGraphModel dx="1060" dy="672" grid="1" gridSize="10" guides="1" tooltips="1" connect="1" arrows="1" fold="1" page="1" pageScale="1" pageWidth="827" pageHeight="1169" math="0" shadow="0">
      <root>
        <mxCell id="0" />
        <mxCell id="1" parent="0" />
        <mxCell id="egEPkAXpUtNOVQftQJcz-14" value="&lt;div style=&quot;font-family: Menlo, Monaco, &amp;quot;Courier New&amp;quot;, monospace; font-weight: normal; line-height: 18px; white-space: pre;&quot;&gt;&lt;span style=&quot;background-color: light-dark(rgb(255, 255, 255), rgb(6, 112, 90));&quot;&gt;&lt;font style=&quot;color: rgb(0, 0, 0);&quot;&gt;DraggableList&lt;/font&gt;&lt;/span&gt;&lt;/div&gt;" style="swimlane;whiteSpace=wrap;html=1;" vertex="1" parent="1">
          <mxGeometry x="70" y="40" width="200" height="200" as="geometry" />
        </mxCell>
      </root>
    </mxGraphModel>
  </diagram>
</mxfile>
